<?xml version="1.0" encoding="UTF-8" standalone="no"?>
<svg
   xmlns:dc="http://purl.org/dc/elements/1.1/"
   xmlns:cc="http://creativecommons.org/ns#"
   xmlns:rdf="http://www.w3.org/1999/02/22-rdf-syntax-ns#"
   xmlns:svg="http://www.w3.org/2000/svg"
   xmlns="http://www.w3.org/2000/svg"
   xmlns:sodipodi="http://sodipodi.sourceforge.net/DTD/sodipodi-0.dtd"
   xmlns:inkscape="http://www.inkscape.org/namespaces/inkscape"
   id="svg2"
   viewBox="0 0 35.999041 44.998922"
   height="45"
   width="36"
   version="1.1"
   inkscape:version="0.91 r13725"
   sodipodi:docname="logo.svg">
  <metadata
     id="metadata13">
    <rdf:RDF>
      <cc:Work
         rdf:about="">
        <dc:format>image/svg+xml</dc:format>
        <dc:type
           rdf:resource="http://purl.org/dc/dcmitype/StillImage" />
        <dc:title></dc:title>
      </cc:Work>
    </rdf:RDF>
  </metadata>
  <defs
     id="defs11" />
  <sodipodi:namedview
     pagecolor="#ffffff"
     bordercolor="#666666"
     borderopacity="1"
     objecttolerance="10"
     gridtolerance="10"
     guidetolerance="10"
     inkscape:pageopacity="0"
     inkscape:pageshadow="2"
     inkscape:window-width="1920"
     inkscape:window-height="1017"
     id="namedview9"
     showgrid="false"
     inkscape:zoom="4.72"
     inkscape:cx="20.000594"
     inkscape:cy="33.473836"
     inkscape:window-x="-8"
     inkscape:window-y="-8"
     inkscape:window-maximized="1"
     inkscape:current-layer="svg2"
     fit-margin-top="0"
     fit-margin-left="0"
     fit-margin-right="0"
     fit-margin-bottom="0" />
  <g
     id="g4139"
     transform="matrix(0.54162784,0,0,0.52385365,-25.629883,-39.44121)"
     inkscape:export-xdpi="90"
     inkscape:export-ydpi="90">
    <g
       id="g5"
       style="fill:#ffffff">
      <path
         id="path3380"
         d="m 63.607,153.02 -16.287,-8.158 0,-1.3899 c 0,-0.76446 0.08149,-1.357 0.18108,-1.3168 0.0996,0.0402 7.4506,3.7007 16.336,8.1344 8.885,4.4337 16.253,8.0613 16.373,8.0613 0.12026,0 7.669,-3.7016 16.775,-8.2258 9.1059,-4.5242 16.611,-8.2258 16.678,-8.2258 0.0669,0 0.12163,0.59213 0.12163,1.3158 l 0,1.3158 -16.67,8.3358 c -9.1687,4.5846 -16.794,8.3302 -16.945,8.3235 -0.15112,-0.007 -7.6039,-3.6834 -16.562,-8.1703 z"
         inkscape:connector-curvature="0" />
      <path
         id="path3378"
         d="m 63.607,142.71 -16.287,-8.158 0,-1.3899 c 0,-0.76446 0.08149,-1.357 0.18108,-1.3168 0.0996,0.0402 7.4506,3.7007 16.336,8.1344 8.885,4.4337 16.253,8.0613 16.373,8.0613 0.12026,0 7.669,-3.7016 16.775,-8.2258 9.1059,-4.5242 16.611,-8.2258 16.678,-8.2258 0.0669,0 0.12163,0.59212 0.12163,1.3158 l 0,1.3158 -16.67,8.3358 c -9.1687,4.5847 -16.794,8.3302 -16.945,8.3235 -0.15112,-0.007 -7.6039,-3.6834 -16.562,-8.1703 z"
         inkscape:connector-curvature="0" />
      <path
         id="path3376"
         d="m 63.717,132.34 -16.397,-8.214 0,-1.3889 0,-1.3889 16.451,8.1918 16.451,8.1918 16.726,-8.3273 16.726,-8.3273 0.066,1.3308 c 0.0363,0.73194 0.0363,1.3579 0,1.391 -0.1061,0.0968 -33.511,16.78 -33.572,16.767 -0.0305,-0.007 -7.4339,-3.7084 -16.452,-8.2261 z"
         inkscape:connector-curvature="0" />
    </g>
    <path
       id="path3366"
       d="m 63.498,121.93 -16.177,-8.1044 0.0065,-1.6997 0.0065,-1.6997 8.0139,-9.3841 8.0139,-9.3841 16.464,-8.2325 c 9.0551,-4.5279 16.579,-8.1883 16.719,-8.1344 0.14062,0.05396 0.53074,0.49503 0.86693,0.98015 l 0.61126,0.88205 -8.3895,9.8364 c -4.6142,5.41 -8.5425,9.9352 -8.7296,10.056 -0.38389,0.2476 -18.363,9.5957 -20.785,10.807 l -1.5695,0.78492 -1.2268,-0.64102 c -0.67472,-0.35256 -1.2264,-0.69038 -1.2259,-0.7507 0.0012,-0.15685 0.80366,-0.59579 5.6604,-3.0964 2.3751,-1.2228 6.638,-3.4362 9.4731,-4.9187 2.8352,-1.4824 5.8145,-3.0247 6.6207,-3.4272 1.3828,-0.69046 1.7286,-1.0413 6.1045,-6.1944 2.5513,-3.0043 5.3226,-6.2527 6.1586,-7.2185 0.83599,-0.96584 1.4827,-1.7933 1.4372,-1.8389 -0.0455,-0.04554 -6.0242,2.8779 -13.286,6.4965 -14.703,7.3267 -13.1,6.2991 -16.812,10.78 -0.95624,1.1544 -4.0089,4.7392 -6.7838,7.9663 -2.7748,3.2271 -5.0452,5.9725 -5.0452,6.101 0,0.12844 6.889,3.6774 15.309,7.8866 l 15.309,7.653 14.743,-7.3765 c 8.1085,-4.0571 14.829,-7.4572 14.935,-7.5558 0.10556,-0.0986 -5.4466,-2.9752 -12.338,-6.3925 -6.8915,-3.4173 -12.506,-6.2753 -12.476,-6.3512 0.0298,-0.0759 0.42429,-0.54495 0.87661,-1.0424 l 0.8224,-0.9044 13.381,6.6911 13.381,6.6911 0,1.275 0,1.275 -16.506,8.1623 c -9.0785,4.4892 -16.704,8.1544 -16.945,8.1448 -0.24129,-0.01 -7.7185,-3.6644 -16.616,-8.1218 z"
       inkscape:connector-curvature="0"
       style="fill:#2196f3" />
  </g>
</svg>
