<?xml version="1.0" standalone="no"?>
<!DOCTYPE svg PUBLIC "-//W3C//DTD SVG 20010904//EN"
 "http://www.w3.org/TR/2001/REC-SVG-20010904/DTD/svg10.dtd">
<svg version="1.0" xmlns="http://www.w3.org/2000/svg"
 width="260.000000pt" height="260.000000pt" viewBox="0 0 260.000000 260.000000"
 preserveAspectRatio="xMidYMid meet">
<metadata>
Created by potrace 1.11, written by Peter Selinger 2001-2013
</metadata>
<g transform="translate(0.000000,260.000000) scale(0.100000,-0.100000)"
fill="#000000" stroke="none">
<path d="M1685 2557 c-49 -24 -272 -134 -496 -245 -441 -220 -412 -201 -555
-372 -43 -52 -91 -108 -105 -125 -15 -16 -75 -86 -133 -154 -105 -123 -106
-125 -106 -176 l0 -51 318 -159 c174 -87 397 -198 495 -246 l177 -88 48 21
c46 20 954 466 958 471 7 7 11 66 5 74 -3 6 -187 101 -407 211 l-401 201 -22
-25 c-11 -13 -21 -28 -21 -32 0 -4 163 -90 363 -191 199 -101 366 -187 371
-191 7 -7 -208 -118 -854 -441 l-35 -17 -455 229 c-250 127 -458 233 -463 238
-6 6 100 140 212 266 14 17 62 73 106 125 135 161 124 154 541 362 211 106
385 190 388 187 2 -2 -21 -33 -51 -69 -245 -287 -287 -335 -307 -350 -27 -21
-91 -56 -333 -181 -305 -158 -355 -185 -355 -195 0 -5 14 -17 31 -26 l32 -18
177 92 c410 212 498 260 517 281 19 20 181 207 232 267 12 14 76 89 142 167
67 77 121 145 121 150 -1 8 -35 53 -42 53 -1 0 -43 -19 -93 -43z"/>
<path d="M1786 960 c-274 -137 -501 -248 -505 -246 -210 105 -982 486 -985
486 -4 0 -6 -18 -6 -40 l0 -40 490 -245 c269 -135 497 -245 505 -245 8 0 240
113 515 250 l500 251 0 39 c0 22 -3 40 -7 39 -5 0 -232 -112 -507 -249z"/>
<path d="M290 848 l0 -44 490 -244 c269 -134 497 -243 505 -243 8 0 240 112
515 248 l500 249 0 38 c0 21 -4 38 -9 38 -5 0 -146 -68 -313 -151 -345 -172
-686 -339 -694 -339 -4 0 -964 473 -986 487 -5 2 -8 -15 -8 -39z"/>
<path d="M1865 371 c-639 -316 -570 -285 -608 -270 -18 7 -238 116 -490 241
-252 125 -462 228 -467 228 -6 0 -10 -17 -10 -38 l0 -37 496 -248 495 -247 42
18 c23 11 252 124 510 253 l467 233 0 38 c0 21 -3 38 -7 38 -5 0 -197 -94
-428 -209z"/>
</g>
</svg>
